<?xml version="1.0" encoding="utf-8"?>
<!-- Generator: Adobe Illustrator 16.0.0, SVG Export Plug-In . SVG Version: 6.00 Build 0)  -->
<!DOCTYPE svg PUBLIC "-//W3C//DTD SVG 1.1//EN" "http://www.w3.org/Graphics/SVG/1.1/DTD/svg11.dtd">
<svg version="1.1" id="Layer_1" xmlns="http://www.w3.org/2000/svg" xmlns:xlink="http://www.w3.org/1999/xlink" x="0px" y="0px"
	 width="240.38px" height="38.3px" viewBox="4.6 11.5 240.38 38.3" enable-background="new 4.6 11.5 240.38 38.3"
	 xml:space="preserve">
<rect x="238.2" y="11.5" fill="#B2D235" width="6.6" height="23.6"/>
<path d="M66.5,27.7c0-2.2-0.3-4.1-1-5.7s-1.8-2.8-3.2-3.6c-1.4-0.8-3.3-1.2-5.6-1.2c-1.4,0-2.6,0.2-3.7,0.7s-2.1,1.1-2.9,1.9
	c-0.8,0.8-1.4,1.8-1.8,2.9c-0.4,1.1-0.7,2.3-0.7,3.5c0,1.4,0.3,2.7,0.7,3.8c0.5,1.1,1.2,2,2,2.8c0.9,0.8,1.9,1.3,3.1,1.7
	c1.2,0.4,2.4,0.6,3.8,0.6c1,0,1.9-0.1,2.8-0.3s1.8-0.6,2.6-1c0.8-0.399,1.5-1,2.1-1.7c0.6-0.699,1.1-1.5,1.4-2.397H60
	c-0.2,0.3-0.4,0.5-0.7,0.7c-0.3,0.202-0.6,0.3-1,0.401c-0.4,0.1-0.7,0.1-1.1,0.1c-0.7,0-1.3-0.103-1.7-0.4c-0.5-0.3-0.9-0.7-1.1-1.2
	c-0.3-0.5-0.4-1.1-0.5-1.7h12.6V27.7z M53.9,24.3c0.1-0.9,0.5-1.6,1.1-2.1s1.3-0.7,2.3-0.7c0.6,0,1.1,0.1,1.5,0.4
	c0.4,0.3,0.8,0.6,1,1c0.2,0.4,0.4,0.9,0.4,1.5h-6.3V24.3z"/>
<polygon points="64.2,34.9 71.4,34.9 73.9,30.6 76.4,34.9 83.6,34.9 77.5,25.8 82.9,17.7 75.9,17.7 74,21.1 72.1,17.7 64.8,17.7 
	70.2,25.8 "/>
<path d="M92.9,12.4h-6.6v5.2h-2.9v4h2.9v8.2c0,0.9,0.1,1.7,0.3,2.3c0.2,0.603,0.5,1.103,0.9,1.5c0.4,0.4,0.8,0.7,1.3,0.801
	c0.5,0.199,1,0.302,1.6,0.399C91,34.9,91.5,34.9,92.1,34.9c0.7,0,1.4,0,2.1-0.103c0.7-0.101,1.4-0.101,2.1-0.101v-5
	c-0.5,0.1-1,0.1-1.5,0.1s-1-0.1-1.3-0.2c-0.3-0.2-0.5-0.4-0.6-0.8c-0.1-0.3-0.2-0.8-0.2-1.3v-6h3.5v-4h-3.5v-5.1L92.9,12.4
	L92.9,12.4z"/>
<path d="M97.4,34.9h6.6v-6.8c0-1.2,0.2-2.2,0.5-3c0.3-0.8,0.7-1.3,1.3-1.7c0.6-0.4,1.3-0.5,2.2-0.5c0.4,0,0.8,0,1.1,0.1
	c0.3,0,0.6,0.1,0.8,0.2c0.2,0.1,0.5,0.1,0.7,0.2v-5.8c-0.3-0.1-0.6-0.1-1-0.2c-0.3,0-0.6-0.1-1-0.1c-0.8,0-1.5,0.1-2.1,0.4
	c-0.6,0.2-1.1,0.6-1.6,1.1c-0.4,0.5-0.8,1.1-1.2,1.7h-0.1v-2.8h-6.3v17.2H97.4z"/>
<path d="M129.7,27.7c0-2.2-0.3-4.1-1-5.7s-1.8-2.8-3.2-3.6c-1.4-0.8-3.3-1.2-5.6-1.2c-1.4,0-2.6,0.2-3.7,0.7
	c-1.1,0.5-2.1,1.1-2.9,1.9c-0.8,0.8-1.4,1.8-1.8,2.9c-0.4,1.1-0.7,2.3-0.7,3.5c0,1.4,0.3,2.7,0.7,3.8c0.5,1.1,1.2,2,2,2.8
	c0.9,0.8,1.9,1.3,3.1,1.7c1.2,0.4,2.4,0.6,3.8,0.6c1,0,1.9-0.1,2.8-0.3c0.9-0.2,1.8-0.6,2.6-1c0.8-0.399,1.5-1,2.101-1.7
	c0.602-0.699,1.102-1.5,1.399-2.397h-6.1c-0.2,0.3-0.4,0.5-0.7,0.7c-0.3,0.202-0.6,0.3-1,0.401c-0.4,0.102-0.7,0.102-1.1,0.102
	c-0.7,0-1.3-0.102-1.7-0.4c-0.5-0.3-0.9-0.7-1.1-1.2c-0.3-0.5-0.4-1.1-0.5-1.7h12.6V27.7L129.7,27.7z M117.1,24.3
	c0.1-0.9,0.5-1.6,1.1-2.1c0.6-0.5,1.3-0.7,2.3-0.7c0.6,0,1.1,0.1,1.5,0.4c0.4,0.3,0.8,0.6,1,1s0.4,0.9,0.4,1.5h-6.3V24.3z"/>
<path d="M130.6,34.9h6.603v-9.3c0-0.6,0.101-1.1,0.198-1.6c0.102-0.5,0.399-0.8,0.699-1.1c0.301-0.3,0.801-0.4,1.301-0.4
	s0.899,0.1,1.199,0.3c0.301,0.2,0.5,0.4,0.603,0.7c0.101,0.3,0.198,0.6,0.3,1c0,0.4,0.102,0.8,0.102,1.2V35h6.601v-9.3
	c0-0.6,0.101-1.1,0.2-1.6c0.099-0.5,0.398-0.8,0.699-1.1s0.801-0.4,1.301-0.4s0.898,0.1,1.199,0.3c0.301,0.2,0.5,0.4,0.601,0.7
	c0.101,0.3,0.2,0.6,0.3,1c0,0.4,0.1,0.8,0.1,1.2v9.3h6.603v-12c0-0.7-0.103-1.4-0.301-2.1c-0.199-0.7-0.5-1.3-1-1.9
	s-1.101-1-1.802-1.4c-0.799-0.3-1.698-0.5-2.799-0.5c-0.899,0-1.601,0.1-2.201,0.3c-0.6,0.2-1.198,0.4-1.6,0.6
	c-0.4,0.2-0.8,0.5-1.1,0.8c-0.301,0.3-0.5,0.5-0.602,0.7c-0.199,0.2-0.301,0.3-0.301,0.4c-0.3-0.6-0.699-1.1-1.102-1.5
	c-0.5-0.4-1-0.7-1.601-0.9c-0.6-0.2-1.2-0.3-1.899-0.3c-0.801,0-1.5,0.1-2.198,0.3c-0.7,0.2-1.302,0.5-1.899,0.9
	c-0.6,0.4-1.101,0.9-1.5,1.6H137v-2.3h-6.3V34.9H130.6z"/>
<path d="M178.9,27.7c0-2.2-0.301-4.1-1-5.7c-0.7-1.6-1.801-2.8-3.2-3.6c-1.4-0.8-3.3-1.2-5.601-1.2c-1.399,0-2.602,0.2-3.699,0.7
	c-1.103,0.5-2.103,1.1-2.9,1.9c-0.8,0.8-1.4,1.8-1.8,2.9c-0.4,1.1-0.7,2.3-0.7,3.5c0,1.4,0.3,2.7,0.7,3.8c0.5,1.1,1.2,2,2,2.8
	c0.899,0.8,1.899,1.3,3.1,1.7c1.201,0.4,2.4,0.6,3.8,0.6c1,0,1.9-0.1,2.801-0.3c0.899-0.2,1.802-0.6,2.602-1
	c0.801-0.399,1.5-1,2.102-1.7c0.601-0.699,1.101-1.5,1.398-2.397H172.4c-0.199,0.3-0.399,0.5-0.699,0.7
	c-0.301,0.202-0.602,0.3-1,0.401c-0.401,0.1-0.701,0.1-1.102,0.1c-0.699,0-1.301-0.103-1.699-0.4c-0.5-0.3-0.899-0.7-1.102-1.2
	c-0.3-0.5-0.398-1.1-0.5-1.7H178.9V27.7z M166.4,24.3c0.1-0.9,0.5-1.6,1.1-2.1s1.3-0.7,2.3-0.7c0.601,0,1.101,0.1,1.5,0.4
	c0.4,0.3,0.8,0.6,1,1s0.4,0.9,0.4,1.5h-6.3V24.3z"/>
<polygon fill="#B2D235" points="196.5,18 189.8,18 187.1,28.4 187,28.4 184.3,18 177.4,18 183,35.2 190.8,35.2 "/>
<path fill="#B2D235" d="M203.4,11.5H196.8v4.6h6.601V11.5L203.4,11.5z M196.8,35.2h6.601V18H196.8V35.2z"/>
<path fill="#B2D235" d="M214.3,12.8h-6.6V18h-2.9v4h2.9v8.2c0,0.899,0.1,1.7,0.3,2.3s0.5,1.1,0.9,1.5c0.397,0.4,0.8,0.7,1.3,0.8
	c0.5,0.2,1,0.3,1.6,0.4c0.601,0.1,1.101,0.1,1.7,0.1c0.7,0,1.4,0,2.1-0.1C216.3,35.1,217,35.1,217.7,35.1v-5c-0.5,0.1-1,0.1-1.5,0.1
	s-1-0.1-1.3-0.2c-0.301-0.2-0.5-0.4-0.603-0.8c-0.101-0.3-0.198-0.8-0.198-1.3v-6h3.5v-4h-3.5v-5.1H214.3z"/>
<path fill="#B2D235" d="M235.7,24.3c0-0.6,0-1.1,0-1.6s-0.101-1.1-0.3-1.6c-0.103-0.5-0.4-1-0.7-1.4c-0.3-0.4-0.8-0.8-1.4-1.1
	c-0.6-0.3-1.399-0.6-2.3-0.7c-0.9-0.2-2.1-0.3-3.5-0.3c-0.8,0-1.6,0-2.5,0.1c-0.8,0.1-1.6,0.2-2.3,0.5c-0.7,0.3-1.4,0.5-2,1
	c-0.601,0.4-1.101,1-1.4,1.6c-0.399,0.7-0.6,1.5-0.6,2.4h6.1c0-0.3,0.101-0.5,0.2-0.8c0.1-0.3,0.4-0.5,0.7-0.7
	c0.3-0.2,0.899-0.3,1.5-0.3c0.399,0,0.7,0,1,0.2c0.3,0.1,0.6,0.3,0.8,0.5c0.2,0.2,0.3,0.5,0.3,0.9s-0.1,0.6-0.3,0.8
	c-0.2,0.2-0.4,0.4-0.7,0.5c-0.3,0.1-0.6,0.2-0.899,0.2c-0.601,0.1-1.198,0.2-1.898,0.3c-0.699,0.1-1.398,0.2-2.102,0.3
	c-0.698,0.1-1.398,0.3-2.101,0.5c-0.7,0.2-1.3,0.5-1.8,0.9s-1,0.9-1.3,1.5s-0.5,1.4-0.5,2.3c0,0.9,0.2,1.7,0.5,2.3
	c0.3,0.7,0.8,1.2,1.3,1.603c0.6,0.397,1.2,0.698,1.9,0.897c0.699,0.2,1.5,0.301,2.3,0.301c0.7,0,1.399-0.101,2.1-0.198
	c0.7-0.103,1.3-0.302,1.9-0.603c0.6-0.3,1.1-0.699,1.6-1.199h0.101c0,0.199,0,0.302,0,0.5c0,0.199,0,0.399,0.102,0.602
	s0.102,0.398,0.102,0.5h6.699c-0.199-0.398-0.398-0.8-0.5-1.199c-0.101-0.398-0.199-0.898-0.199-1.301s0-0.898,0-1.3v-6.9
	L235.7,24.3L235.7,24.3z M229.4,29c0,0.6-0.2,1.1-0.4,1.5c-0.2,0.4-0.6,0.7-1,0.9c-0.4,0.199-0.8,0.3-1.4,0.3
	c-0.397,0-0.8-0.101-1.1-0.2s-0.6-0.3-0.7-0.6c-0.2-0.2-0.3-0.5-0.3-0.8c0-0.4,0.1-0.7,0.3-0.9c0.2-0.2,0.4-0.4,0.7-0.6
	c0.3-0.1,0.7-0.3,1.2-0.4c0.399-0.1,0.899-0.2,1.3-0.3s0.9-0.3,1.3-0.5V29H229.4z"/>
<path fill="#B2D235" d="M15.4,49C9,45.8,4.6,39.1,4.6,31.5c0-10.2,7.8-18.6,17.8-19.6c3.5,0.9,8.4,3,8.9,7.3
	c0.7,6.3-5.3,10.7-8.1,13c-2.8,2.3-5,5.3-5,5.3C14.5,42.5,14.8,46.8,15.4,49 M26.7,12c9.7,1.2,17.2,9.5,17.2,19.5
	c0,8.3-5.2,15.5-12.5,18.3c-6.1-3.8-2.2-9.7-0.1-12.2l0,0c0.2-0.199,3.4-4.397,3.4-4.397c4-6.3,2.4-10.7,2.4-10.7
	C35.6,16.3,30.1,13.3,26.7,12z"/>
<g>
	<path fill="#231F20" d="M57.435,42.912v1.521c0,0.17-0.064,0.315-0.192,0.439c-0.128,0.126-0.279,0.188-0.452,0.188h-4.557v0.367
		c0,0.215,0.095,0.396,0.285,0.547l0.375,0.307c0.205,0.154,0.399,0.232,0.583,0.232h3.314c0.173,0,0.324,0.063,0.452,0.184
		c0.128,0.123,0.192,0.271,0.192,0.445c0,0.17-0.065,0.317-0.196,0.443c-0.13,0.124-0.279,0.188-0.448,0.188h-3.398
		c-0.224,0-0.461-0.047-0.708-0.139c-0.25-0.093-0.432-0.189-0.55-0.289L51.56,46.85c-0.179-0.14-0.328-0.334-0.448-0.582
		c-0.12-0.252-0.18-0.479-0.18-0.689v-2.887c0-0.164,0.065-0.387,0.195-0.668c0.131-0.277,0.295-0.498,0.494-0.65l0.538-0.411
		c0.353-0.278,0.744-0.42,1.174-0.42h1.81c0.455,0,0.884,0.187,1.289,0.556l0.483,0.448C57.261,41.852,57.435,42.307,57.435,42.912z
		 M52.25,42.814v0.973h3.911v-0.875c0-0.234-0.074-0.416-0.223-0.54l-0.375-0.323c-0.194-0.154-0.368-0.232-0.521-0.232h-1.619
		c-0.199,0-0.38,0.067-0.544,0.203l-0.376,0.308C52.334,42.45,52.25,42.613,52.25,42.814z"/>
	<path fill="#231F20" d="M69.936,45.059l-2.11,2.455c-0.137,0.174-0.309,0.262-0.514,0.262c-0.184,0-0.338-0.063-0.461-0.187
		c-0.122-0.126-0.184-0.278-0.184-0.458c0-0.16,0.041-0.287,0.122-0.382l2.318-2.701l-2.142-2.483
		c-0.097-0.11-0.145-0.235-0.145-0.377c0-0.164,0.06-0.313,0.179-0.444c0.12-0.134,0.275-0.198,0.463-0.198
		c0.214,0,0.387,0.077,0.521,0.232l1.945,2.291l2-2.309c0.122-0.145,0.276-0.217,0.459-0.217c0.165,0,0.312,0.057,0.445,0.169
		s0.2,0.257,0.2,0.431c0,0.17-0.029,0.287-0.084,0.354l-2.18,2.563l2.287,2.692c0.088,0.097,0.13,0.212,0.13,0.354
		c0,0.189-0.064,0.351-0.195,0.479c-0.13,0.128-0.28,0.191-0.448,0.191c-0.2,0-0.373-0.088-0.521-0.262L69.936,45.059z"/>
	<path fill="#231F20" d="M86.729,47.775h-1.288c-0.533,0-0.989-0.187-1.374-0.555c-0.383-0.371-0.575-0.814-0.575-1.334v-4.084
		h-0.66c-0.179,0-0.331-0.063-0.456-0.183c-0.125-0.121-0.188-0.271-0.188-0.45c0-0.174,0.063-0.322,0.188-0.443
		c0.125-0.123,0.277-0.186,0.456-0.186h0.675v-1.545c0-0.176,0.063-0.324,0.188-0.443c0.126-0.123,0.277-0.186,0.457-0.186
		c0.168,0,0.318,0.063,0.449,0.188c0.13,0.123,0.195,0.271,0.195,0.44v1.545h2.592c0.174,0,0.324,0.062,0.453,0.187
		c0.127,0.125,0.192,0.272,0.192,0.442c0,0.175-0.064,0.323-0.192,0.446c-0.128,0.121-0.279,0.186-0.453,0.186H84.78v4.084
		c0,0.17,0.065,0.314,0.196,0.441c0.131,0.125,0.285,0.188,0.464,0.188h1.258c0.342,0,0.57-0.181,0.683-0.543
		c0.112-0.363,0.33-0.543,0.652-0.543c0.188,0,0.343,0.063,0.464,0.184c0.12,0.121,0.181,0.275,0.181,0.459
		c0,0.383-0.183,0.762-0.549,1.138C87.763,47.587,87.296,47.775,86.729,47.775z"/>
	<path fill="#231F20" d="M97.833,47.146v-5.976c0-0.174,0.063-0.323,0.188-0.452s0.277-0.191,0.456-0.191
		c0.179,0,0.332,0.063,0.457,0.188s0.188,0.278,0.188,0.457v0.788l1.051-0.877c0.435-0.358,0.859-0.54,1.273-0.54h0.943
		c0.532,0,0.987,0.186,1.365,0.555s0.567,0.813,0.567,1.336v0.336c0,0.181-0.062,0.332-0.188,0.457
		c-0.125,0.125-0.278,0.188-0.456,0.188c-0.179,0-0.331-0.061-0.457-0.184s-0.188-0.271-0.188-0.446v-0.353
		c0-0.176-0.063-0.324-0.188-0.447c-0.126-0.121-0.277-0.182-0.457-0.182h-0.837c-0.178,0-0.377,0.092-0.597,0.274L99.12,43.63
		v3.517c0,0.174-0.064,0.324-0.191,0.444c-0.128,0.122-0.279,0.185-0.453,0.185c-0.179,0-0.331-0.063-0.456-0.185
		C97.895,47.471,97.833,47.32,97.833,47.146z"/>
	<path fill="#231F20" d="M119.949,42.912v1.521c0,0.17-0.064,0.315-0.191,0.439c-0.128,0.126-0.279,0.188-0.453,0.188h-4.555v0.367
		c0,0.215,0.094,0.396,0.284,0.547l0.375,0.307c0.205,0.154,0.399,0.232,0.583,0.232h3.313c0.174,0,0.325,0.063,0.453,0.184
		c0.127,0.123,0.191,0.271,0.191,0.445c0,0.17-0.065,0.317-0.196,0.443c-0.129,0.124-0.279,0.188-0.449,0.188h-3.397
		c-0.225,0-0.461-0.047-0.709-0.139c-0.248-0.093-0.431-0.189-0.548-0.289l-0.575-0.496c-0.179-0.14-0.328-0.334-0.448-0.582
		c-0.121-0.252-0.181-0.479-0.181-0.689v-2.887c0-0.164,0.066-0.387,0.196-0.668c0.13-0.277,0.295-0.498,0.495-0.65l0.536-0.411
		c0.354-0.278,0.745-0.42,1.174-0.42h1.81c0.455,0,0.884,0.187,1.289,0.556l0.483,0.448
		C119.776,41.852,119.949,42.307,119.949,42.912z M114.765,42.814v0.973h3.912v-0.875c0-0.234-0.075-0.416-0.223-0.54l-0.375-0.323
		c-0.194-0.154-0.368-0.232-0.521-0.232h-1.619c-0.199,0-0.38,0.067-0.543,0.203l-0.376,0.308
		C114.849,42.45,114.765,42.613,114.765,42.814z"/>
	<path fill="#231F20" d="M128.93,47.146v-5.976c0-0.174,0.063-0.321,0.188-0.444c0.126-0.123,0.277-0.185,0.458-0.185
		c0.331,0,0.541,0.159,0.628,0.479c0.357-0.33,0.757-0.496,1.193-0.496c0.518,0,0.939,0.216,1.271,0.646
		c0.409-0.43,0.857-0.646,1.352-0.646c0.396,0,0.742,0.141,1.035,0.416c0.295,0.277,0.45,0.633,0.473,1.063l0.186,5.143
		c0,0.17-0.064,0.315-0.191,0.441c-0.129,0.124-0.278,0.188-0.453,0.188c-0.178,0-0.332-0.063-0.459-0.188
		c-0.129-0.126-0.194-0.271-0.2-0.441l-0.152-4.94c-0.011-0.269-0.095-0.401-0.254-0.401c-0.088,0-0.176,0.035-0.269,0.109
		l-0.769,0.631v4.602c0,0.17-0.063,0.315-0.188,0.437c-0.127,0.12-0.277,0.183-0.455,0.183c-0.176,0-0.324-0.063-0.452-0.186
		c-0.129-0.123-0.19-0.271-0.19-0.446v-5.007c0-0.215-0.096-0.32-0.281-0.32c-0.092,0-0.176,0.031-0.254,0.096l-0.924,0.766v4.482
		c0,0.17-0.061,0.315-0.183,0.441c-0.123,0.124-0.272,0.188-0.445,0.188c-0.181,0-0.335-0.063-0.465-0.188
		C128.994,47.463,128.93,47.314,128.93,47.146z"/>
	<path fill="#231F20" d="M151.206,42.912v1.521c0,0.17-0.063,0.315-0.19,0.439c-0.127,0.126-0.279,0.188-0.451,0.188h-4.558v0.367
		c0,0.215,0.095,0.396,0.284,0.547l0.375,0.307c0.205,0.154,0.398,0.232,0.584,0.232h3.314c0.172,0,0.324,0.063,0.451,0.184
		c0.127,0.123,0.188,0.271,0.188,0.445c0,0.17-0.063,0.317-0.195,0.443c-0.128,0.124-0.276,0.188-0.444,0.188h-3.398
		c-0.227,0-0.462-0.047-0.709-0.139c-0.249-0.093-0.434-0.189-0.551-0.289l-0.573-0.496c-0.181-0.14-0.331-0.334-0.449-0.582
		c-0.12-0.252-0.18-0.479-0.18-0.689v-2.887c0-0.164,0.063-0.387,0.196-0.668c0.127-0.277,0.293-0.498,0.492-0.65l0.537-0.411
		c0.354-0.278,0.744-0.42,1.174-0.42h1.812c0.454,0,0.883,0.187,1.287,0.556l0.481,0.448
		C151.034,41.852,151.206,42.307,151.206,42.912z M146.021,42.814v0.973h3.912v-0.875c0-0.234-0.074-0.416-0.224-0.54l-0.376-0.323
		c-0.193-0.154-0.368-0.232-0.521-0.232h-1.619c-0.198,0-0.379,0.067-0.543,0.203l-0.377,0.308
		C146.105,42.45,146.021,42.613,146.021,42.814z"/>
	<path fill="#231F20" d="M193.406,40.543h2.953c0.459,0,0.867,0.132,1.22,0.4c0.353,0.268,0.528,0.527,0.528,0.781
		c0,0.182-0.063,0.328-0.195,0.442c-0.128,0.115-0.273,0.173-0.434,0.173c-0.205,0-0.391-0.09-0.562-0.271
		c-0.168-0.18-0.347-0.27-0.528-0.27h-2.914c-0.285,0-0.432,0.115-0.432,0.348c0,0.164,0.098,0.287,0.288,0.373l3.426,1.49
		c0.349,0.148,0.634,0.391,0.854,0.723c0.223,0.332,0.332,0.701,0.332,1.104c0,0.54-0.194,0.998-0.586,1.371
		c-0.393,0.377-0.834,0.563-1.33,0.563h-2.606c-0.448,0-0.866-0.133-1.255-0.396c-0.387-0.268-0.579-0.521-0.579-0.771
		c0-0.166,0.063-0.313,0.188-0.438c0.123-0.129,0.285-0.189,0.486-0.189c0.163,0,0.338,0.09,0.524,0.27s0.454,0.27,0.808,0.27H196
		c0.188,0,0.346-0.07,0.477-0.213c0.125-0.144,0.19-0.307,0.19-0.49c0-0.285-0.144-0.49-0.431-0.615l-3.459-1.52
		c-0.332-0.146-0.588-0.355-0.769-0.632c-0.179-0.272-0.269-0.552-0.269-0.839c0-0.449,0.158-0.838,0.479-1.168
		C192.542,40.707,192.936,40.543,193.406,40.543z"/>
	<path fill="#231F20" d="M207.218,47.146v-8.701c0-0.172,0.063-0.315,0.189-0.437c0.125-0.12,0.274-0.181,0.454-0.181
		s0.332,0.063,0.457,0.186c0.125,0.12,0.188,0.271,0.188,0.443v3.18l1.035-0.66c0.473-0.289,0.893-0.435,1.258-0.435h0.799
		c0.525,0,0.979,0.185,1.356,0.552c0.379,0.366,0.573,0.813,0.591,1.338l0.162,4.715c0.005,0.174-0.061,0.324-0.188,0.444
		c-0.127,0.122-0.278,0.185-0.461,0.185c-0.178,0-0.33-0.063-0.451-0.19c-0.123-0.127-0.187-0.272-0.189-0.438l-0.162-4.729
		c-0.005-0.17-0.07-0.318-0.197-0.441c-0.129-0.125-0.281-0.188-0.461-0.188h-0.724c-0.161,0-0.34,0.063-0.534,0.188l-1.834,1.168
		v4.004c0,0.174-0.063,0.324-0.188,0.445c-0.125,0.122-0.277,0.184-0.457,0.184s-0.329-0.062-0.454-0.184
		C207.279,47.471,207.218,47.32,207.218,47.146z"/>
	<path fill="#231F20" d="M229.35,42.814v2.658c0,0.563-0.271,1.088-0.813,1.566c-0.544,0.479-1.104,0.72-1.685,0.72h-1.512
		c-0.588,0-1.15-0.241-1.688-0.729c-0.535-0.487-0.805-1.006-0.805-1.557v-2.658c0-0.551,0.262-1.068,0.784-1.559
		c0.524-0.486,1.095-0.729,1.707-0.729h1.513c0.578-0.01,1.14,0.226,1.684,0.705C229.077,41.712,229.35,42.238,229.35,42.814z
		 M224.148,42.865v2.549c0,0.23,0.086,0.412,0.254,0.547l0.481,0.405c0.108,0.091,0.261,0.135,0.454,0.135h1.495
		c0.222,0,0.419-0.078,0.601-0.231l0.389-0.338c0.16-0.119,0.24-0.287,0.24-0.502v-2.548c0-0.251-0.08-0.437-0.24-0.557
		l-0.451-0.351c-0.152-0.125-0.331-0.188-0.536-0.188h-1.334c-0.292,0-0.517,0.067-0.676,0.202l-0.438,0.367
		C224.23,42.486,224.148,42.654,224.148,42.865z"/>
	<path fill="#231F20" d="M239.796,47.057v2.789c0,0.178-0.063,0.329-0.188,0.454c-0.125,0.128-0.276,0.188-0.457,0.188
		c-0.178,0-0.332-0.063-0.463-0.188s-0.194-0.276-0.194-0.454v-8.979c0-0.172,0.063-0.318,0.19-0.442
		c0.127-0.125,0.281-0.188,0.467-0.188c0.177,0,0.324,0.063,0.453,0.188c0.127,0.124,0.192,0.271,0.192,0.442v0.402
		c0.621-0.68,1.237-1.019,1.847-1.019h0.301c0.453,0,0.873,0.164,1.257,0.493l1.073,0.908c0.473,0.396,0.707,0.906,0.707,1.521
		v1.964c0,0.619-0.254,1.143-0.76,1.566l-1.052,0.885c-0.349,0.309-0.788,0.463-1.317,0.463h-0.285c-0.5,0-0.926-0.169-1.271-0.51
		L239.796,47.057z M241.611,46.777h0.33c0.158,0,0.328-0.077,0.506-0.231l1.005-0.86c0.169-0.131,0.254-0.31,0.254-0.533v-2.029
		c0-0.201-0.095-0.378-0.283-0.532l-1.082-0.905c-0.122-0.104-0.255-0.158-0.397-0.158h-0.377c-0.144,0-0.33,0.115-0.561,0.345
		l-0.959,0.931c-0.169,0.164-0.251,0.35-0.251,0.555v1.611c0,0.196,0.093,0.385,0.283,0.569l0.927,0.907
		C241.234,46.666,241.438,46.777,241.611,46.777z"/>
</g>
</svg>
